<svg id="Capa_1" enable-background="new 0 0 512 512" height="512" viewBox="0 0 512 512" width="512" xmlns="http://www.w3.org/2000/svg"><g><g><g><path d="m408.134 347.844h19.386c4.142 0 7.5-3.358 7.5-7.5s-3.358-7.5-7.5-7.5h-19.386c-4.142 0-7.5 3.358-7.5 7.5s3.358 7.5 7.5 7.5z"/><path d="m65.024 347.763h74c4.142 0 7.5-3.358 7.5-7.5s-3.358-7.5-7.5-7.5h-74c-4.142 0-7.5 3.358-7.5 7.5s3.358 7.5 7.5 7.5z"/><path d="m490.771 361.316h-21.271v-17.137c0-28.77-16.982-54.92-43.265-66.623-7.563-3.367-17.26-6.314-27.624-8.849.058-153.272.045-173.497.045-173.995.045-52.291-42.259-94.639-94.557-94.639h-26.404-.311c-.066 0-.132.005-.198.006-51.88.272-94.093 42.346-94.048 94.628 0 13.711.024 98.478.026 102.684.001 4.142 3.358 7.498 7.5 7.498h.002c4.142-.001 7.499-3.36 7.498-7.502l-.009-36.434c1.977.609 4.075.94 6.25.94h5.744c3.359 18.694 13.827 36.002 30.304 49.723 1.484 1.235 2.986 2.396 4.495 3.523v37.601c0 2.979-2.231 5.514-5.19 5.897-10.874 1.411-26.198 3.656-41.576 6.749l-.008-32.939c-.001-4.142-3.358-7.498-7.5-7.498 0 0-.001 0-.002 0-4.142.001-7.499 3.36-7.498 7.502l.009 36.255c-10.365 2.535-20.062 5.482-27.624 8.849-12.319 5.486-22.723 14.15-30.331 25.182h-84.588c-10.97 0-19.895 8.924-19.895 19.894v38.708c-11.481.262-20.745 9.663-20.745 21.205v13.568c0 9.07 5.729 16.808 13.75 19.842v75.479c0 11.3 9.194 20.494 20.494 20.494h443.512c11.3 0 20.494-9.194 20.494-20.494v-22.203c0-4.142-3.358-7.5-7.5-7.5s-7.5 3.358-7.5 7.5v22.203c0 3.029-2.465 5.494-5.494 5.494h-443.512c-3.029 0-5.494-2.465-5.494-5.494v-74.093h454.5v16.827c0 4.142 3.358 7.5 7.5 7.5s7.5-3.358 7.5-7.5v-18.213c8.021-3.034 13.75-10.772 13.75-19.842v-13.568c0-11.705-9.523-21.228-21.229-21.228zm-36.271-17.137v17.137h-73.324v-81.105c14.428 2.915 29.018 6.623 38.958 11.048 20.877 9.296 34.366 30.068 34.366 52.92zm-238.818 17.137v-49.303c21.545 16.41 47.713 25.3 75.247 25.3s53.703-8.89 75.248-25.299v49.303h-150.495zm126.354-102.677c-2.959-.384-5.19-2.919-5.19-5.898v-37.601c1.509-1.127 3.012-2.287 4.495-3.523 16.481-13.723 26.95-31.035 30.306-49.723h5.742c2.175 0 4.273-.331 6.25-.94l-.027 104.434c-15.378-3.095-30.702-5.338-41.576-6.749zm35.373-140.531c3.395.005 6.159 2.729 6.24 6.106l-.004 16.647c-.125 3.346-2.879 6.032-6.255 6.032h-4.563l.072-28.785zm6.247-23.405-.002 8.405c-6.819 0-51.885 0-58.157 0-65.639 0-87.534-87.526-48.235-88.025.145-.001.288-.01.433-.01h26.404c43.992 0 79.596 35.619 79.557 79.63zm-138.276-72.793c-5.194 12.87-1.71 31.604 3.448 44.379v3.471c0 10.27-8.355 18.625-18.625 18.625-9.481 0-17.511 6.129-20.327 14.722h-5.481c-2.176 0-4.276.332-6.254.942l-.002-9.351c-.029-32.468 19.348-60.381 47.241-72.788zm-47.229 118.95-.004-16.645c.081-3.381 2.85-6.107 6.249-6.107h4.439l.13 28.786h-4.559c-3.377 0-6.131-2.687-6.255-6.034zm25.822 7.791-.176-38.83c-.016-3.552 2.854-6.436 6.406-6.436 12.816 0 23.977-7.209 29.649-17.784 15.12 19.742 38.914 32.506 65.644 32.506h32.402l-.077 30.577c0 25.213-15.22 44.184-31.968 55.99-.103.054-18.728 13.64-34.956 14.097-15.849-.446-34.839-14.035-34.942-14.09-16.754-11.808-31.982-30.791-31.982-56.03zm17.716 124.863c10.41-1.351 18.26-10.281 18.26-20.773v-28.199c11.784 6.09 22.983 9.064 30.788 9.231.054.001.107.001.161.001s.107 0 .161-.001c7.805-.167 19.004-3.141 30.788-9.231v28.199c0 10.492 7.85 19.422 18.26 20.772 6.16.8 15.573 2.117 26.071 3.912v14.932c-20.423 19.339-47.022 29.955-75.248 29.955-28.225 0-54.824-10.616-75.247-29.955v-14.942c10.471-1.79 19.859-3.103 26.006-3.901zm-80.029 17.745c9.956-4.432 24.574-8.144 39.022-11.061v81.118h-18.046v-38.684c0-10.97-8.925-19.894-19.895-19.894h-17.997c4.876-4.767 10.575-8.655 16.916-11.479zm-121.02 26.479h88.625c.005 0 .01.001.015.001s.01-.001.015-.001h33.446c2.699 0 4.895 2.195 4.895 4.894v38.684h-131.891v-38.684c0-2.698 2.196-4.894 4.895-4.894zm-25.64 64.806c0-3.435 2.794-6.229 6.229-6.229h469.543c3.435 0 6.229 2.794 6.229 6.229v13.568c0 3.434-2.794 6.228-6.229 6.228h-469.543c-3.435 0-6.229-2.794-6.229-6.228z"/></g></g></g></svg>